<svg width="1200" height="520" viewBox="0 0 1200 520" fill="none" xmlns="http://www.w3.org/2000/svg">
  <defs>
    <linearGradient id="bg" x1="0" y1="0" x2="1200" y2="520">
      <stop stop-color="#0A0A0A"/>
      <stop offset="1" stop-color="#120000"/>
    </linearGradient>
    <filter id="soft" x="-50%" y="-50%" width="200%" height="200%">
      <feGaussianBlur stdDeviation="1.2"/>
    </filter>
  </defs>
  <rect width="1200" height="520" rx="28" fill="url(#bg)"/>
  <g opacity="0.85">
    <path d="M90 110H1110" stroke="#FFFFFF" stroke-opacity="0.07"/>
    <path d="M90 180H1110" stroke="#FFFFFF" stroke-opacity="0.06"/>
    <path d="M90 250H1110" stroke="#FFFFFF" stroke-opacity="0.06"/>
    <path d="M90 320H1110" stroke="#FFFFFF" stroke-opacity="0.06"/>
    <path d="M90 390H1110" stroke="#FFFFFF" stroke-opacity="0.05"/>
  </g>

  <g filter="url(#soft)">
    <!-- candles -->
    <g>
      <path d="M210 350V160" stroke="#34D399" stroke-width="4" stroke-linecap="round" stroke-opacity="0.9"/>
      <rect x="196" y="250" width="28" height="100" rx="4" fill="#34D399" fill-opacity="0.85"/>
    </g>
    <g>
      <path d="M270 390V220" stroke="#FF1A1A" stroke-width="4" stroke-linecap="round" stroke-opacity="0.9"/>
      <rect x="256" y="280" width="28" height="80" rx="4" fill="#FF1A1A" fill-opacity="0.85"/>
    </g>
    <g>
      <path d="M330 360V150" stroke="#34D399" stroke-width="4" stroke-linecap="round" stroke-opacity="0.9"/>
      <rect x="316" y="210" width="28" height="130" rx="4" fill="#34D399" fill-opacity="0.85"/>
    </g>
    <g>
      <path d="M390 380V210" stroke="#FF1A1A" stroke-width="4" stroke-linecap="round" stroke-opacity="0.9"/>
      <rect x="376" y="270" width="28" height="90" rx="4" fill="#FF1A1A" fill-opacity="0.85"/>
    </g>
    <g>
      <path d="M450 340V120" stroke="#34D399" stroke-width="4" stroke-linecap="round" stroke-opacity="0.9"/>
      <rect x="436" y="170" width="28" height="150" rx="4" fill="#34D399" fill-opacity="0.85"/>
    </g>
    <g>
      <path d="M510 360V170" stroke="#34D399" stroke-width="4" stroke-linecap="round" stroke-opacity="0.9"/>
      <rect x="496" y="240" width="28" height="100" rx="4" fill="#34D399" fill-opacity="0.85"/>
    </g>
    <g>
      <path d="M570 400V210" stroke="#FF1A1A" stroke-width="4" stroke-linecap="round" stroke-opacity="0.9"/>
      <rect x="556" y="280" width="28" height="110" rx="4" fill="#FF1A1A" fill-opacity="0.85"/>
    </g>
    <g>
      <path d="M630 370V160" stroke="#34D399" stroke-width="4" stroke-linecap="round" stroke-opacity="0.9"/>
      <rect x="616" y="230" width="28" height="120" rx="4" fill="#34D399" fill-opacity="0.85"/>
    </g>
    <g>
      <path d="M690 390V190" stroke="#FF1A1A" stroke-width="4" stroke-linecap="round" stroke-opacity="0.9"/>
      <rect x="676" y="260" width="28" height="110" rx="4" fill="#FF1A1A" fill-opacity="0.85"/>
    </g>
    <g>
      <path d="M750 350V140" stroke="#34D399" stroke-width="4" stroke-linecap="round" stroke-opacity="0.9"/>
      <rect x="736" y="210" width="28" height="120" rx="4" fill="#34D399" fill-opacity="0.85"/>
    </g>
    <g>
      <path d="M810 330V120" stroke="#34D399" stroke-width="4" stroke-linecap="round" stroke-opacity="0.9"/>
      <rect x="796" y="180" width="28" height="130" rx="4" fill="#34D399" fill-opacity="0.85"/>
    </g>
    <g>
      <path d="M870 370V170" stroke="#FF1A1A" stroke-width="4" stroke-linecap="round" stroke-opacity="0.9"/>
      <rect x="856" y="250" width="28" height="110" rx="4" fill="#FF1A1A" fill-opacity="0.85"/>
    </g>
    <g>
      <path d="M930 340V150" stroke="#34D399" stroke-width="4" stroke-linecap="round" stroke-opacity="0.9"/>
      <rect x="916" y="220" width="28" height="110" rx="4" fill="#34D399" fill-opacity="0.85"/>
    </g>
  </g>

  <text x="90" y="70" fill="white" fill-opacity="0.90" font-family="Inter, Arial" font-size="22" font-weight="700">
    Candlestick Chart (Green/Red Candles)
  </text>
</svg>

