<svg width="1200" height="520" viewBox="0 0 1200 520" fill="none" xmlns="http://www.w3.org/2000/svg">
  <defs>
    <linearGradient id="bg" x1="0" y1="0" x2="1200" y2="520">
      <stop stop-color="#0A0A0A"/>
      <stop offset="1" stop-color="#111111"/>
    </linearGradient>
    <filter id="glow" x="-50%" y="-50%" width="200%" height="200%">
      <feGaussianBlur stdDeviation="10" result="b"/>
      <feMerge>
        <feMergeNode in="b"/>
        <feMergeNode in="SourceGraphic"/>
      </feMerge>
    </filter>
  </defs>
  <rect width="1200" height="520" rx="28" fill="url(#bg)"/>
  <g opacity="0.9">
    <path d="M90 410H1110" stroke="#34D399" stroke-opacity="0.35" stroke-width="4" stroke-linecap="round"/>
    <text x="90" y="442" fill="#34D399" fill-opacity="0.9" font-family="Inter, Arial" font-size="16" font-weight="700">SUPPORT ZONE</text>
  </g>

  <g opacity="0.7">
    <path d="M90 120H1110" stroke="#FFFFFF" stroke-opacity="0.06"/>
    <path d="M90 200H1110" stroke="#FFFFFF" stroke-opacity="0.06"/>
    <path d="M90 280H1110" stroke="#FFFFFF" stroke-opacity="0.06"/>
    <path d="M90 360H1110" stroke="#FFFFFF" stroke-opacity="0.06"/>
  </g>

  <g filter="url(#glow)">
    <path d="M150 180 C 250 220, 320 260, 390 330 C 460 400, 520 430, 600 410 C 690 385, 760 300, 860 240 C 960 180, 1030 170, 1080 160" stroke="#FF1A1A" stroke-opacity="0.85" stroke-width="7" stroke-linecap="round"/>
  </g>

  <g opacity="0.95">
    <circle cx="600" cy="410" r="8" fill="#34D399"/>
    <circle cx="860" cy="240" r="6" fill="#FF1A1A"/>
  </g>

  <text x="90" y="70" fill="white" fill-opacity="0.90" font-family="Inter, Arial" font-size="22" font-weight="700">
    Support: Price Bounces Up
  </text>
</svg>

